<?xml version="1.0" encoding="UTF-8"?>
<svg version="1.1" xmlns="http://www.w3.org/2000/svg" width="500" height="500">
<path d="M0 0 C22.11 0 44.22 0 67 0 C67.495 1.98 67.495 1.98 68 4 C68.66 4 69.32 4 70 4 C70.52170776 5.0058313 70.52170776 5.0058313 71.05395508 6.03198242 C72.63850326 9.0846727 74.22547689 12.13609571 75.8125 15.1875 C76.63331055 16.77014648 76.63331055 16.77014648 77.47070312 18.38476562 C78.00244141 19.40634766 78.53417969 20.42792969 79.08203125 21.48046875 C79.56905518 22.41785889 80.0560791 23.35524902 80.55786133 24.32104492 C81.53491828 26.13605184 82.5798025 27.91585404 83.68237305 29.6574707 C85 32 85 32 85 35 C75.1 35.33 65.2 35.66 55 36 C62.27067831 54.00504594 62.27067831 54.00504594 73 70 C73.27674561 69.47156494 73.55349121 68.94312988 73.83862305 68.39868164 C75.12044195 65.9526884 76.40396316 63.50759216 77.6875 61.0625 C78.12255859 60.23169922 78.55761719 59.40089844 79.00585938 58.54492188 C81.9262822 52.98530213 84.9249047 47.47557346 88 42 C89.921875 42.7734375 89.921875 42.7734375 92 44 C93.25 47.625 93.25 47.625 94 51 C94.66 51 95.32 51 96 51 C96.875 52.60416667 97.75 54.20833333 98.625 55.8125 C99.17285156 56.81667969 99.72070312 57.82085937 100.28515625 58.85546875 C101.37704022 60.85767056 102.46825907 62.86023533 103.55859375 64.86328125 C105.9460464 69.24751247 108.33822212 73.62909464 110.75 78 C111.33007812 79.051875 111.33007812 79.051875 111.921875 80.125 C112.87984605 81.79103661 113.93396688 83.40095032 115 85 C114.8627087 90.76623442 111.89464403 95.19339553 109 100 C108.34 100 107.68 100 107 100 C106.89816406 100.71027344 106.79632813 101.42054688 106.69140625 102.15234375 C105.67218558 106.35015093 103.45661341 109.68183936 101.27734375 113.37890625 C99.70794635 116.11332813 99.70794635 116.11332813 100 120 C100.84438 122.16935919 100.84438 122.16935919 102 124.25 C102.37125 124.95640625 102.7425 125.6628125 103.125 126.390625 C103.41375 126.92171875 103.7025 127.4528125 104 128 C106.33364352 125.07096942 108.04960836 122.11431797 109.6875 118.75 C110.12449219 117.85796875 110.56148438 116.9659375 111.01171875 116.046875 C111.33785156 115.37140625 111.66398437 114.6959375 112 114 C112.66 114 113.32 114 114 114 C114.13124268 113.41226807 114.26248535 112.82453613 114.39770508 112.21899414 C115.34129966 108.74257291 117.05925306 105.63367455 118.6875 102.4375 C119.05053223 101.71860596 119.41356445 100.99971191 119.78759766 100.2590332 C122.21235387 95.48171798 124.72738187 90.76251765 127.3203125 86.07421875 C129.5070077 82.072058 131.62919106 78.03737379 133.75 74 C134.3840979 72.79355835 134.3840979 72.79355835 135.03100586 71.56274414 C137.2776939 67.2856471 139.52036094 63.00645465 141.76171875 58.7265625 C142.20999023 57.87191406 142.65826172 57.01726562 143.12011719 56.13671875 C143.97752919 54.50197919 144.83371395 52.86659516 145.68847656 51.23046875 C147.2962568 48.16626001 148.90339322 45.15641098 150.72265625 42.2109375 C151.93838621 40.1066465 152.55991906 38.37643707 153 36 C151.3973218 35.89175157 149.79254252 35.81429355 148.1875 35.75 C147.29417969 35.70359375 146.40085938 35.6571875 145.48046875 35.609375 C142.9398148 35.77348426 142.9398148 35.77348426 141.36328125 37.515625 C139.89505717 40.19124252 138.88797376 42.93063419 137.86621094 45.80126953 C136.32603909 49.71073617 134.20681512 53.29588647 132.125 56.9375 C131.70347656 57.68451172 131.28195313 58.43152344 130.84765625 59.20117188 C130.00104988 60.70150336 129.15243935 62.20070583 128.30175781 63.69873047 C126.17809374 67.45297982 124.08915016 71.22646555 122 75 C121.34 75 120.68 75 120 75 C113.35572772 63.3284109 106.71807033 51.66492235 100.48828125 39.765625 C99.00558809 36.90636009 99.00558809 36.90636009 97 34 C97.27524872 28.83722666 99.33207796 24.85775851 101.6875 20.375 C102.35830688 19.07043278 103.0288725 17.76574148 103.69921875 16.4609375 C104.45847656 14.98882812 105.21773438 13.51671875 106 12 C107.98 8.04 109.96 4.08 112 0 C134.44 0 156.88 0 180 0 C181.98 3.96 183.96 7.92 186 12 C186.75925781 13.47210938 187.51851562 14.94421875 188.30078125 16.4609375 C188.63787109 17.11707031 188.97496094 17.77320313 189.32226562 18.44921875 C189.99604437 19.75956558 190.67597921 21.06676118 191.36132812 22.37109375 C193.32091937 26.21387892 194.83581709 29.60962737 195 34 C193.9609375 36.421875 193.9609375 36.421875 192.375 38.75 C190.25094262 42.02377651 188.31478867 45.23153592 186.625 48.75 C184.65382751 52.78650928 182.49883618 56.67370226 180.25 60.5625 C177.08953323 66.03209853 174.03737893 71.55217961 171.0625 77.125 C170.67288086 77.8476001 170.28326172 78.5702002 169.88183594 79.31469727 C169.51993164 79.99717529 169.15802734 80.67965332 168.78515625 81.3828125 C168.46426025 81.98496582 168.14336426 82.58711914 167.81274414 83.20751953 C166.06573779 86.99127041 166.06573779 86.99127041 166.72509766 90.96362305 C167.31363525 91.97743042 167.31363525 91.97743042 167.9140625 93.01171875 C168.34589844 93.77033203 168.77773438 94.52894531 169.22265625 95.31054688 C169.68542969 96.09494141 170.14820313 96.87933594 170.625 97.6875 C171.51302083 99.23307292 172.40104167 100.77864583 173.2890625 102.32421875 C173.73709229 103.09499756 174.18512207 103.86577637 174.64672852 104.65991211 C178.04695772 110.53961569 181.30246426 116.4724277 184.3125 122.5625 C184.82425781 123.59503906 185.33601562 124.62757813 185.86328125 125.69140625 C186.42595703 126.83416016 186.42595703 126.83416016 187 128 C190.32744141 123.70304492 190.32744141 123.70304492 193 119 C191.83317237 115.38540378 190.06917818 112.12945568 188.25 108.8046875 C187.7240625 107.84175781 187.198125 106.87882812 186.65625 105.88671875 C185.83640625 104.39591797 185.83640625 104.39591797 185 102.875 C184.18015625 101.37259766 184.18015625 101.37259766 183.34375 99.83984375 C180.32905689 94.32588496 180.32905689 94.32588496 177 89 C177.33670433 84.86097914 179.03265137 81.68815564 180.984375 78.0703125 C181.59023438 76.94496094 182.19609375 75.81960937 182.8203125 74.66015625 C183.13774414 74.0789502 183.45517578 73.49774414 183.78222656 72.89892578 C184.74091568 71.14165154 185.68693316 69.37748358 186.6328125 67.61328125 C189.79134057 61.78266509 193.06552619 56.33057742 197 51 C198.10470393 48.89351487 199.05747264 46.77977509 200.0078125 44.6015625 C201 43 201 43 204 42 C209.10883999 51.27605064 214.0589009 60.63387214 219 70 C222.56572654 65.95091942 224.68970843 61.80394246 226.875 56.9375 C230.09479087 49.86853527 233.52077608 42.95844784 237 36 C222.15 35.505 222.15 35.505 207 35 C207.916606 30.41697001 208.82618576 28.24275974 211.1875 24.375 C214.09514606 19.53090932 216.8664766 14.64300459 219.54296875 9.66796875 C221.31666626 6.42015266 223.16399684 3.21300554 225 0 C247.11 0 269.22 0 292 0 C291.04809119 4.75954403 289.93768085 7.16785191 287.5 11.25 C283.83093876 17.48158021 280.40421575 23.81507319 277.05859375 30.22558594 C275.14031094 33.89013163 273.13027576 37.45325815 271 41 C269.61834991 43.54809794 268.28004184 46.11863195 266.9375 48.6875 C263.39105033 55.43055474 259.74257659 62.1081779 256.0222168 68.7565918 C251.81360872 76.29428881 247.71841314 83.89252028 243.64160156 91.50219727 C241.14386805 96.14156955 238.5952409 100.72132606 235.85546875 105.22265625 C233.34216921 109.36109684 231.1478849 113.57151914 229.0625 117.9375 C226.21073689 123.79082835 223.04675446 129.24849324 219.453125 134.6875 C217.59119668 137.65056873 216.34851851 140.77528182 215 144 C213.58236156 146.47232728 212.09722727 148.89747525 210.609375 151.328125 C205.9840152 159.0071204 202.00891515 166.9821697 198 175 C188.43 175 178.86 175 169 175 C167.02 171.04 165.04 167.08 163 163 C160.80084528 159.35024376 160.80084528 159.35024376 158.578125 155.71484375 C156.02583184 151.32414141 153.83659013 146.76339077 151.61328125 142.19921875 C150.06577592 139.0224073 150.06577592 139.0224073 148.29296875 136.20703125 C147 134 147 134 147 132 C146.34 132 145.68 132 145 132 C144.79375 132.763125 144.5875 133.52625 144.375 134.3125 C141.75315598 141.34380897 137.74045794 147.71723908 134.0078125 154.20703125 C133.20609619 155.60296509 133.20609619 155.60296509 132.38818359 157.02709961 C131.30873669 158.90366415 130.22580944 160.77823165 129.13916016 162.65063477 C128.63433105 163.52647217 128.12950195 164.40230957 127.609375 165.3046875 C127.15530273 166.08827637 126.70123047 166.87186523 126.23339844 167.67919922 C124.74147526 170.38585133 124.74147526 170.38585133 123 175 C113.43 175 103.86 175 94 175 C92.72125 172.56625 91.4425 170.1325 90.125 167.625 C85.56700308 158.98719452 80.8342979 150.45223511 76.07226562 141.92578125 C74.25580415 138.66342968 72.47406074 135.38245937 70.69140625 132.1015625 C67.82044413 126.83702688 64.92397295 121.58650134 62.03198242 116.33349609 C59.6351203 111.97831703 57.24525242 107.61973909 54.875 103.25 C53.24145828 100.24183527 51.57991631 97.25220299 49.88671875 94.27734375 C45.56932514 86.68497079 41.47829405 79.05273316 37.640625 71.20703125 C35.65556735 67.32671618 33.42440713 63.65149411 31.06640625 59.98828125 C30 58 30 58 30 55 C29.34 55 28.68 55 28 55 C27.649375 54.113125 27.29875 53.22625 26.9375 52.3125 C24.37722391 46.33449686 21.12017604 40.69800388 18 35 C17.50242187 34.07832031 17.00484375 33.15664062 16.4921875 32.20703125 C12.11031387 24.10176227 7.63386132 16.01358586 2.86816406 8.12695312 C0 3.3189314 0 3.3189314 0 0 Z " fill="#262523" transform="translate(104,143)"/>
<path d="M0 0 C2.3125 0 2.3125 0 5 1 C6.41288147 3.61051928 7.135305 6.13285344 8 9 C9.32 6.03 10.64 3.06 12 0 C12.99 0 13.98 0 15 0 C16.32 2.97 17.64 5.94 19 9 C20.32 6.03 21.64 3.06 23 0 C24.32 0 25.64 0 27 0 C25.47214176 6.59904729 23.92382423 12.87389209 21 19 C18.6875 18.875 18.6875 18.875 16 18 C14.1875 14.9375 14.1875 14.9375 13 12 C12.01 14.31 11.02 16.62 10 19 C7.67578125 18.92578125 7.67578125 18.92578125 5 18 C3.41796875 14.98046875 3.41796875 14.98046875 2.1875 11.1875 C1.76855469 9.94355469 1.34960938 8.69960938 0.91796875 7.41796875 C0 4 0 4 0 0 Z " fill="#514F4E" transform="translate(135,366)"/>
<path d="M0 0 C11.46728196 -0.36991232 11.46728196 -0.36991232 13.87890625 1.3046875 C15.69149157 4.04567017 15.10891878 6.78689599 15 10 C15.29185063 12.0064731 15.61169599 14.00994193 16 16 C12.61416198 19.13107836 10.28890538 19.33550778 5.75 19.1875 C2.90375 19.0946875 2.90375 19.0946875 0 19 C0 12.73 0 6.46 0 0 Z M4 4 C4 4.99 4 5.98 4 7 C5.98 7 7.96 7 10 7 C10 6.01 10 5.02 10 4 C8.02 4 6.04 4 4 4 Z M4 11 C4 12.65 4 14.3 4 16 C7.465 15.505 7.465 15.505 11 15 C11 14.01 11 13.02 11 12 C9.87465895 10.64381501 9.87465895 10.64381501 6.9375 10.9375 C5.968125 10.958125 4.99875 10.97875 4 11 Z " fill="#171713" transform="translate(189,366)"/>
<path d="M0 0 C2.92111392 2.15606028 3.74170466 3.61322986 4.40234375 7.16015625 C4.68727974 11.3230016 4.3263496 13.48415709 2.0625 17.0625 C-2.04811899 19.66309569 -5.2594664 20.05631455 -10 19 C-13.66304688 16.48165527 -14.75360451 14.79716189 -16.0625 10.5625 C-15.98541095 6.16842411 -14.78058336 4.33670003 -12 1 C-8.27656693 -0.86171654 -4.05534494 -0.55597471 0 0 Z M-9 4 C-11.1610211 7.24153166 -11.64247553 8.23692901 -11 12 C-8.60140956 14.33630748 -8.60140956 14.33630748 -6 16 C-4.35 15.34 -2.7 14.68 -1 14 C-1 11.03 -1 8.06 -1 5 C-3.78863007 3.60568496 -5.92078868 3.74339906 -9 4 Z " fill="#41413F" transform="translate(258,366)"/>
<path d="M0 0 C1.17369141 -0.00386719 1.17369141 -0.00386719 2.37109375 -0.0078125 C4.5625 0.125 4.5625 0.125 7.5625 1.125 C10.3903523 5.26578372 11.07026911 8.45994239 10.19140625 13.2890625 C9.08568042 16.51695779 7.55186029 17.59851815 4.5625 19.125 C0.96618359 19.68157278 -2.31751515 19.47867943 -5.8125 18.375 C-7.93359306 16.74338996 -8.60701953 15.68564812 -9.4375 13.125 C-9.63319268 9.40683899 -9.61740239 6.66470718 -8.4375 3.125 C-7.7775 3.125 -7.1175 3.125 -6.4375 3.125 C-6.4375 2.465 -6.4375 1.805 -6.4375 1.125 C-4.08479407 -0.05135297 -2.616748 -0.00859359 0 0 Z M-4.375 5.875 C-5.59285825 8.01205676 -5.59285825 8.01205676 -5.375 10.125 C-4.17645537 12.68189522 -2.5189699 14.24496267 -0.4375 16.125 C2.09994315 15.57791273 2.09994315 15.57791273 4.5625 14.125 C5.63393765 10.83925787 5.90223524 8.98566261 4.625 5.75 C4.274375 5.21375 3.92375 4.6775 3.5625 4.125 C-0.81140357 3.64619797 -0.81140357 3.64619797 -4.375 5.875 Z " fill="#656462" transform="translate(332.4375,365.875)"/>
<path d="M0 0 C11.625 -0.25 11.625 -0.25 15 2 C15.40843923 4.71203652 15.13336867 7.2437142 15 10 C14.01 10.33 13.02 10.66 12 11 C12.66 11.94875 13.32 12.8975 14 13.875 C16 17 16 17 16 19 C13.75 19.3125 13.75 19.3125 11 19 C8.875 16.5625 8.875 16.5625 7 14 C6.01 13.67 5.02 13.34 4 13 C4 14.98 4 16.96 4 19 C2.68 19 1.36 19 0 19 C0 12.73 0 6.46 0 0 Z M4 4 C4 5.65 4 7.3 4 9 C5.98 9 7.96 9 10 9 C10.59070014 7.05396726 10.59070014 7.05396726 11 5 C9.87465895 3.64381501 9.87465895 3.64381501 6.9375 3.9375 C5.968125 3.958125 4.99875 3.97875 4 4 Z " fill="#191916" transform="translate(269,366)"/>
<path d="M0 0 C4.29 0 8.58 0 13 0 C13 1.32 13 2.64 13 4 C10.03 4 7.06 4 4 4 C4 4.99 4 5.98 4 7 C6.64 7 9.28 7 12 7 C12.33 8.32 12.66 9.64 13 11 C10.03 11 7.06 11 4 11 C4 12.65 4 14.3 4 16 C8.455 15.505 8.455 15.505 13 15 C13.33 16.32 13.66 17.64 14 19 C9.38 19 4.76 19 0 19 C-0.91431569 14.42842156 -0.94773878 11.2675611 -0.5625 6.6875 C-0.46066406 5.43324219 -0.35882813 4.17898438 -0.25390625 2.88671875 C-0.17011719 1.93410156 -0.08632812 0.98148437 0 0 Z " fill="#484745" transform="translate(168,366)"/>
<path d="M0 0 C1.32 0 2.64 0 4 0 C4.02578125 0.91523438 4.0515625 1.83046875 4.078125 2.7734375 C4.13484375 3.96195312 4.1915625 5.15046875 4.25 6.375 C4.29640625 7.55835938 4.3428125 8.74171875 4.390625 9.9609375 C4.66976445 13.08131964 4.66976445 13.08131964 6.921875 14.4765625 C9.04192587 15.25075914 9.04192587 15.25075914 11 14 C11.47001033 10.72444392 11.47001033 10.72444392 11.625 6.9375 C11.69976562 5.64714844 11.77453125 4.35679687 11.8515625 3.02734375 C11.90054687 2.02832031 11.94953125 1.02929688 12 0 C13.65 0.33 15.3 0.66 17 1 C17.68577455 12.77246306 17.68577455 12.77246306 15.5625 16.75 C12.29446477 19.61949435 10.34340456 19.5771361 6.12109375 19.40625 C4 19 4 19 1 17 C-0.18681726 13.43954823 -0.09689832 10.56191663 -0.0625 6.8125 C-0.05347656 5.54019531 -0.04445313 4.26789063 -0.03515625 2.95703125 C-0.02355469 1.98121094 -0.01195312 1.00539063 0 0 Z " fill="#5B5958" transform="translate(349,366)"/>
<path d="M0 0 C1.79244141 0.01740234 1.79244141 0.01740234 3.62109375 0.03515625 C5.41740234 0.04869141 5.41740234 0.04869141 7.25 0.0625 C8.17683594 0.07410156 9.10367188 0.08570313 10.05859375 0.09765625 C10.05859375 1.41765625 10.05859375 2.73765625 10.05859375 4.09765625 C7.08859375 4.09765625 4.11859375 4.09765625 1.05859375 4.09765625 C1.05859375 5.41765625 1.05859375 6.73765625 1.05859375 8.09765625 C3.69859375 8.09765625 6.33859375 8.09765625 9.05859375 8.09765625 C9.38859375 9.08765625 9.71859375 10.07765625 10.05859375 11.09765625 C7.08859375 11.09765625 4.11859375 11.09765625 1.05859375 11.09765625 C1.05859375 13.40765625 1.05859375 15.71765625 1.05859375 18.09765625 C-0.87890625 18.66015625 -0.87890625 18.66015625 -2.94140625 19.09765625 C-4.82693155 17.21213095 -4.07387314 14.51996794 -4.078125 12.015625 C-4.07425781 11.21769531 -4.07039062 10.41976563 -4.06640625 9.59765625 C-4.07027344 8.79972656 -4.07414063 8.00179688 -4.078125 7.1796875 C-4.06616458 0.13499882 -4.06616458 0.13499882 0 0 Z " fill="#71716F" transform="translate(226.94140625,365.90234375)"/>
<path d="M0 0 C1.875 0.5625 1.875 0.5625 4 2 C5.25 5.625 5.25 5.625 6 9 C6.66 9 7.32 9 8 9 C8.8638129 10.45264038 9.71580454 11.9123163 10.5625 13.375 C11.03816406 14.18710938 11.51382813 14.99921875 12.00390625 15.8359375 C12.33261719 16.55007812 12.66132813 17.26421875 13 18 C12.67 18.66 12.34 19.32 12 20 C10.62437146 18.71034824 9.29233607 17.37310707 8 16 C8 15.34 8 14.68 8 14 C0.97217958 12.9609283 0.97217958 12.9609283 -6 14 C-6.33 15.65 -6.66 17.3 -7 19 C-7.99 19.33 -8.98 19.66 -10 20 C-8.70341646 15.58900976 -6.98763304 12.12971376 -4.4375 8.3125 C-2.5543264 5.48186691 -1.07671842 3.23015525 0 0 Z " fill="#2C2C2B" transform="translate(192,185)"/>
<path d="M0 0 C1.32 0 2.64 0 4 0 C6.25 3 6.25 3 8 6 C8.7425 5.01 9.485 4.02 10.25 3 C11.515625 1.3125 11.515625 1.3125 13 0 C14.32 0 15.64 0 17 0 C16.32902328 4.19360449 14.1441606 7.40334352 12 11 C11.34 11 10.68 11 10 11 C10 13.64 10 16.28 10 19 C8.68 19 7.36 19 6 19 C5.90203125 18.43152344 5.8040625 17.86304688 5.703125 17.27734375 C4.91020793 13.18288406 4.04383078 9.71664531 1.875 6.125 C0 3 0 3 0 0 Z " fill="#3E3D3A" transform="translate(302,366)"/>
<path d="M0 0 C2.375 -0.125 2.375 -0.125 5 0 C5.66 0.66 6.32 1.32 7 2 C7.33 1.34 7.66 0.68 8 0 C14.0546875 -0.1953125 14.0546875 -0.1953125 16 0 C16.66 0.66 17.32 1.32 18 2 C18.33 1.34 18.66 0.68 19 0 C19.66 0 20.32 0 21 0 C20.47731534 2.76276177 19.89130413 5.3260876 19 8 C16 7 16 7 14 5 C14 5.99 14 6.98 14 8 C9.33333333 8 4.66666667 8 0 8 C0 5.36 0 2.72 0 0 Z M2 3 C2 3.99 2 4.98 2 6 C2.99 6 3.98 6 5 6 C5 5.01 5 4.02 5 3 C4.01 3 3.02 3 2 3 Z " fill="#9A9694" transform="translate(224,395)"/>
<path d="M0 0 C2.64 0 5.28 0 8 0 C8 1.98 8 3.96 8 6 C8.99 6 9.98 6 11 6 C11.144375 5.195625 11.28875 4.39125 11.4375 3.5625 C12 1 12 1 13 0 C15.4375 -0.1875 15.4375 -0.1875 18 0 C20 2 20 2 20.1875 4.5625 C20 7 20 7 19 8 C17.58429877 8.08651611 16.164405 8.10704904 14.74609375 8.09765625 C13.89208984 8.09443359 13.03808594 8.09121094 12.15820312 8.08789062 C11.26037109 8.07951172 10.36253906 8.07113281 9.4375 8.0625 C8.53580078 8.05798828 7.63410156 8.05347656 6.70507812 8.04882812 C4.46998686 8.03700225 2.23502563 8.0205222 0 8 C0 5.36 0 2.72 0 0 Z M14 3 C14 3.99 14 4.98 14 6 C15.32 5.67 16.64 5.34 18 5 C18 4.34 18 3.68 18 3 C16.68 3 15.36 3 14 3 Z M2 5 C6 6 6 6 6 6 Z " fill="#7B7878" transform="translate(246,395)"/>
<path d="M0 0 C6.4 -0.36923077 6.4 -0.36923077 9.4375 1.5 C9.953125 1.995 10.46875 2.49 11 3 C11 2.01 11 1.02 11 0 C13.64 0 16.28 0 19 0 C18.34 2.64 17.68 5.28 17 8 C16.34 8 15.68 8 15 8 C14.67 6.35 14.34 4.7 14 3 C13.67 4.65 13.34 6.3 13 8 C12.01 8 11.02 8 10 8 C9.67 7.34 9.34 6.68 9 6 C8.67 6.66 8.34 7.32 8 8 C5.36 8 2.72 8 0 8 C0 5.36 0 2.72 0 0 Z " fill="#4C4646" transform="translate(284,395)"/>
<path d="M0 0 C11.43942807 -0.36901381 11.43942807 -0.36901381 13.86328125 1.2265625 C15.3018976 3.47100175 15.4012304 4.90885825 15.375 7.5625 C15.38273438 8.34753906 15.39046875 9.13257813 15.3984375 9.94140625 C15.26695312 10.62074219 15.13546875 11.30007813 15 12 C14.01 12.66 13.02 13.32 12 14 C10 11 10 11 10 9 C7.03 8.505 7.03 8.505 4 8 C4 7.67 4 7.34 4 7 C5.98 7 7.96 7 10 7 C10 6.01 10 5.02 10 4 C8.02 4 6.04 4 4 4 C4 3.67 4 3.34 4 3 C5.65 2.67 7.3 2.34 9 2 C6.36 1.67 3.72 1.34 1 1 C1 6.61 1 12.22 1 18 C4.63 18 8.26 18 12 18 C12 18.33 12 18.66 12 19 C8.04 19 4.08 19 0 19 C0 12.73 0 6.46 0 0 Z M8 9 C10 10 10 10 10 10 Z " fill="#8A8A87" transform="translate(189,366)"/>
<path d="M0 0 C22.44 0 44.88 0 68 0 C69.65 3.3 71.3 6.6 73 10 C72.67 10.66 72.34 11.32 72 12 C69.5 9.875 69.5 9.875 67 7 C67 5.02 67 3.04 67 1 C45.22 1 23.44 1 1 1 C1 1.99 1 2.98 1 4 C0.34 4 -0.32 4 -1 4 C-0.67 2.68 -0.34 1.36 0 0 Z " fill="#605F5D" transform="translate(216,143)"/>
<path d="M0 0 C11.625 -0.25 11.625 -0.25 15 2 C15.40843923 4.71203652 15.13336867 7.2437142 15 10 C14.01 10.33 13.02 10.66 12 11 C11.67 11.66 11.34 12.32 11 13 C10.67 10.36 10.34 7.72 10 5 C7.03 4.505 7.03 4.505 4 4 C4 5.65 4 7.3 4 9 C3.67 9 3.34 9 3 9 C3 7.02 3 5.04 3 3 C3.99 3 4.98 3 6 3 C6 2.34 6 1.68 6 1 C4.35 1 2.7 1 1 1 C1 6.61 1 12.22 1 18 C1.99 18.33 2.98 18.66 4 19 C2.68 19 1.36 19 0 19 C0 12.73 0 6.46 0 0 Z " fill="#676765" transform="translate(269,366)"/>
<path d="M0 0 C2.3125 0 2.3125 0 5 1 C6.38293093 3.55518097 7.21791649 6.20866129 8 9 C8.33 9 8.66 9 9 9 C9.144375 9.94875 9.28875 10.8975 9.4375 11.875 C9.82935399 14.8934494 9.82935399 14.8934494 11 17 C10.67 17.66 10.34 18.32 10 19 C7.67578125 18.92578125 7.67578125 18.92578125 5 18 C3.41796875 14.98046875 3.41796875 14.98046875 2.1875 11.1875 C1.76855469 9.94355469 1.34960938 8.69960938 0.91796875 7.41796875 C0 4 0 4 0 0 Z " fill="#4A4845" transform="translate(135,366)"/>
<path d="M0 0 C0.66 0 1.32 0 2 0 C2 0.66 2 1.32 2 2 C2.66 2 3.32 2 4 2 C4 1.34 4 0.68 4 0 C8 0 12 0 16 0 C16 2.64 16 5.28 16 8 C14.35 8 12.7 8 11 8 C10.67 6.68 10.34 5.36 10 4 C9.67 5.32 9.34 6.64 9 8 C8.01 8 7.02 8 6 8 C5.67 7.34 5.34 6.68 5 6 C4.67 6.66 4.34 7.32 4 8 C3.34 8 2.68 8 2 8 C0.23537317 4.91190305 0 3.76687864 0 0 Z " fill="#898885" transform="translate(197,395)"/>
<path d="M0 0 C22.11 0 44.22 0 67 0 C66.01574101 4.92129494 65.1837982 6.40538913 62 10 C61.505 7.525 61.505 7.525 61 5 C61.66 4.67 62.32 4.34 63 4 C63.33 3.01 63.66 2.02 64 1 C42.88 1.33 21.76 1.66 0 2 C0 1.34 0 0.68 0 0 Z " fill="#5D5C59" transform="translate(329,143)"/>
<path d="M0 0 C22.11 0 44.22 0 67 0 C66.67 0.66 66.34 1.32 66 2 C45.21 2 24.42 2 3 2 C3.33 3.65 3.66 5.3 4 7 C2 5.1875 2 5.1875 0 3 C0 2.01 0 1.02 0 0 Z " fill="#5D5C5A" transform="translate(104,143)"/>
<path d="M0 0 C21.45 0 42.9 0 65 0 C65 0.33 65 0.66 65 1 C45.2 1 25.4 1 5 1 C4.67 2.65 4.34 4.3 4 6 C3.71125 5.38125 3.4225 4.7625 3.125 4.125 C2.06279958 1.86674235 2.06279958 1.86674235 0 0 Z " fill="#13130F" transform="translate(105,144)"/>
<path d="M0 0 C1.10272046 3.30816138 1.21537818 5.70111637 0 9 C-2.5625 10.3125 -2.5625 10.3125 -5 11 C-4.7834375 11.86625 -4.7834375 11.86625 -4.5625 12.75 C-4.04166667 14.83333333 -3.52083333 16.91666667 -3 19 C-4.875 20.0625 -4.875 20.0625 -7 21 C-7.66 20.67 -8.32 20.34 -9 20 C-9.28875 20.639375 -9.5775 21.27875 -9.875 21.9375 C-11 24 -11 24 -13 25 C-11.25253949 20.23247186 -8.8867847 15.84354898 -6.5 11.375 C-6.09652344 10.611875 -5.69304687 9.84875 -5.27734375 9.0625 C-3.61652474 5.93818701 -1.96563046 2.94844569 0 0 Z " fill="#262523" transform="translate(326,148)"/>
<path d="M0 0 C20.79 0 41.58 0 63 0 C61 2 61 2 58.57104492 2.22705078 C57.55115479 2.21657715 56.53126465 2.20610352 55.48046875 2.1953125 C54.32587158 2.18870605 53.17127441 2.18209961 51.98168945 2.17529297 C50.72960693 2.15869629 49.47752441 2.14209961 48.1875 2.125 C46.2324995 2.11343122 44.27749885 2.10187332 42.32249451 2.0909729 C38.18401979 2.06462216 34.04569855 2.02028634 29.90734863 1.97924805 C26.50180226 1.94616708 23.09633033 1.91693797 19.69067383 1.89794922 C17.13314765 1.88281498 14.57565685 1.85860532 12.01831055 1.82470703 C10.86371338 1.81810059 9.70911621 1.81149414 8.51953125 1.8046875 C7.49964111 1.79421387 6.47975098 1.78374023 5.42895508 1.77294922 C2.81814464 1.75637107 2.81814464 1.75637107 1 4 C0.34 3.67 -0.32 3.34 -1 3 C-0.67 2.01 -0.34 1.02 0 0 Z " fill="#11110D" transform="translate(330,144)"/>
<path d="M0 0 C0.99 0.33 1.98 0.66 3 1 C3 1.99 3 2.98 3 4 C2.01 4.495 2.01 4.495 1 5 C4.23624676 7.15749784 5.34394066 7.28360488 9.10546875 7.4140625 C10.08837891 7.45273438 11.07128906 7.49140625 12.08398438 7.53125 C13.62022461 7.57765625 13.62022461 7.57765625 15.1875 7.625 C16.22326172 7.66367188 17.25902344 7.70234375 18.32617188 7.7421875 C20.88393622 7.83648296 23.44169287 7.92208202 26 8 C26 8.33 26 8.66 26 9 C15.77 9 5.54 9 -5 9 C-5 5 -5 5 -2.5 2.25 C-1.675 1.5075 -0.85 0.765 0 0 Z " fill="#21201E" transform="translate(317,168)"/>
<path d="M0 0 C2 1.4375 2 1.4375 4 4 C4.72919332 8.69736163 4.66195958 12.00706063 2 16 C-0.97 15.505 -0.97 15.505 -4 15 C-3.67 14.34 -3.34 13.68 -3 13 C-2.34 13 -1.68 13 -1 13 C-1 10.03 -1 7.06 -1 4 C-1.66 3.67 -2.32 3.34 -3 3 C-2.01 2.67 -1.02 2.34 0 2 C0 1.34 0 0.68 0 0 Z " fill="#817F7D" transform="translate(258,367)"/>
<path d="M0 0 C4.11403329 4.70175233 8 9.76417556 8 16.1875 C6.85708246 19.40195559 5.17048881 21.39628863 3 24 C2.80515062 21.56288386 2.61884822 19.12562602 2.4375 16.6875 C2.38142578 15.99720703 2.32535156 15.30691406 2.26757812 14.59570312 C2.03418495 11.37487726 1.96775782 9.09672655 3 6 C2.01 5.67 1.02 5.34 0 5 C-0.33 4.01 -0.66 3.02 -1 2 C-0.67 1.34 -0.34 0.68 0 0 Z " fill="#4A4947" transform="translate(291,160)"/>
<path d="M0 0 C0.66 0 1.32 0 2 0 C3.03046722 1.78614318 4.04913236 3.57910018 5.0625 5.375 C5.63097656 6.37273437 6.19945312 7.37046875 6.78515625 8.3984375 C7.38650391 9.68621094 7.38650391 9.68621094 8 11 C7.67 11.66 7.34 12.32 7 13 C5.824375 12.2265625 5.824375 12.2265625 4.625 11.4375 C3.75875 10.963125 2.8925 10.48875 2 10 C1.01 10.495 1.01 10.495 0 11 C0 9.68 0 8.36 0 7 C-0.99 7.495 -0.99 7.495 -2 8 C-2.99 8.495 -2.99 8.495 -4 9 C-3.35494404 5.51669784 -2.01782732 2.90567134 0 0 Z " fill="#4B4B48" transform="translate(306,185)"/>
<path d="M0 0 C0.33 0 0.66 0 1 0 C1 1.65 1 3.3 1 5 C5.455 4.505 5.455 4.505 10 4 C10.33 5.32 10.66 6.64 11 8 C6.38 8 1.76 8 -3 8 C-3.33 6.35 -3.66 4.7 -4 3 C-3.34 2.34 -2.68 1.68 -2 1 C-1.67 1.33 -1.34 1.66 -1 2 C-0.67 1.34 -0.34 0.68 0 0 Z " fill="#706F6F" transform="translate(171,377)"/>
<path d="M0 0 C0.66 1.32 1.32 2.64 2 4 C1.01 4.33 0.02 4.66 -1 5 C-1.433125 6.299375 -1.433125 6.299375 -1.875 7.625 C-3.20727567 11.62182701 -5.13419598 14.89537898 -8 18 C-8.66 18 -9.32 18 -10 18 C-6.22627737 5.64963504 -6.22627737 5.64963504 -3 1 C-2.01 0.67 -1.02 0.34 0 0 Z " fill="#393835" transform="translate(217,146)"/>
<path d="M0 0 C1.32 0 2.64 0 4 0 C3.32902328 4.19360449 1.1441606 7.40334352 -1 11 C-1.66 11 -2.32 11 -3 11 C-3 13.64 -3 16.28 -3 19 C-4.32 19 -5.64 19 -7 19 C-6.67 18.34 -6.34 17.68 -6 17 C-5.34 17.33 -4.68 17.66 -4 18 C-4.226875 16.741875 -4.45375 15.48375 -4.6875 14.1875 C-5.1995826 10.27768014 -5.1995826 10.27768014 -3.5625 8 C-3.046875 7.67 -2.53125 7.34 -2 7 C-2.66 7 -3.32 7 -4 7 C-2.92598892 4.08482708 -2.22189824 2.22189824 0 0 Z " fill="#686767" transform="translate(315,366)"/>
<path d="M0 0 C0.99 0 1.98 0 3 0 C3.556875 1.670625 3.556875 1.670625 4.125 3.375 C5.4794021 6.61378762 5.76212803 6.89272441 9.1875 8.4375 C10.5796875 8.7159375 10.5796875 8.7159375 12 9 C12 9.66 12 10.32 12 11 C10.741875 11.020625 9.48375 11.04125 8.1875 11.0625 C7.47980469 11.07410156 6.77210938 11.08570313 6.04296875 11.09765625 C4 11 4 11 1 10 C-0.60725635 6.78548731 -0.05748185 3.56387464 0 0 Z " fill="#423F3D" transform="translate(324,373)"/>
<path d="M0 0 C0.33 0 0.66 0 1 0 C1 1.65 1 3.3 1 5 C2.48206495 4.745504 3.96068615 4.47088238 5.4375 4.1875 C6.67306641 3.96126953 6.67306641 3.96126953 7.93359375 3.73046875 C8.61550781 3.48941406 9.29742187 3.24835938 10 3 C10.33 2.01 10.66 1.02 11 0 C11.66 0.33 12.32 0.66 13 1 C12.125 5.875 12.125 5.875 11 7 C8.81360547 7.07258946 6.62499611 7.08373783 4.4375 7.0625 C2.64119141 7.04896484 2.64119141 7.04896484 0.80859375 7.03515625 C-0.11824219 7.02355469 -1.04507813 7.01195312 -2 7 C-1.42415568 4.61435923 -0.77772405 2.33317216 0 0 Z " fill="#30302D" transform="translate(192,377)"/>
<path d="M0 0 C6.0546875 -0.1953125 6.0546875 -0.1953125 8 0 C8.66 0.66 9.32 1.32 10 2 C10.33 1.34 10.66 0.68 11 0 C11.66 0 12.32 0 13 0 C12.47731534 2.76276177 11.89130413 5.3260876 11 8 C8 7 8 7 6 5 C5.67 5.99 5.34 6.98 5 8 C4.01 7.67 3.02 7.34 2 7 C2 4 2 4 4 2 C2.68 1.34 1.36 0.68 0 0 Z " fill="#7A7774" transform="translate(232,395)"/>
<path d="M0 0 C3 1 3 1 4 3 C4.66 2.01 5.32 1.02 6 0 C6.66 0 7.32 0 8 0 C8.33 2.64 8.66 5.28 9 8 C5.66666667 8 2.33333333 8 -1 8 C-0.67 5.36 -0.34 2.72 0 0 Z " fill="#6B6868" transform="translate(274,395)"/>
<path d="M0 0 C4.29 0 8.58 0 13 0 C13 1.32 13 2.64 13 4 C10.03 4 7.06 4 4 4 C3.67 5.32 3.34 6.64 3 8 C2.87625 6.865625 2.7525 5.73125 2.625 4.5625 C2.41875 3.386875 2.2125 2.21125 2 1 C1.34 0.67 0.68 0.34 0 0 Z " fill="#5B5B59" transform="translate(168,366)"/>
<path d="M0 0 C1.22589844 0.01353516 1.22589844 0.01353516 2.4765625 0.02734375 C3.41628906 0.04474609 3.41628906 0.04474609 4.375 0.0625 C4.375 0.3925 4.375 0.7225 4.375 1.0625 C2.065 1.3925 -0.245 1.7225 -2.625 2.0625 C-0.975 2.3925 0.675 2.7225 2.375 3.0625 C2.375 3.3925 2.375 3.7225 2.375 4.0625 C1.42625 4.35125 0.4775 4.64 -0.5 4.9375 C-3.67711578 5.83075109 -3.67711578 5.83075109 -5.625 8.0625 C-6.615 7.7325 -7.605 7.4025 -8.625 7.0625 C-8.625 9.0425 -8.625 11.0225 -8.625 13.0625 C-8.955 13.0625 -9.285 13.0625 -9.625 13.0625 C-9.75 6.4375 -9.75 6.4375 -8.625 3.0625 C-7.965 3.0625 -7.305 3.0625 -6.625 3.0625 C-6.625 2.4025 -6.625 1.7425 -6.625 1.0625 C-4.21954362 -0.14022819 -2.67503047 -0.03821472 0 0 Z " fill="#888787" transform="translate(332.625,365.9375)"/>
<path d="M0 0 C2.31 0 4.62 0 7 0 C7.33 0.66 7.66 1.32 8 2 C7.34 2 6.68 2 6 2 C6 3.98 6 5.96 6 8 C4.02 8 2.04 8 0 8 C0 5.36 0 2.72 0 0 Z " fill="#858282" transform="translate(284,395)"/>
<path d="M0 0 C1.32 0 2.64 0 4 0 C2.31326082 4.49797113 0.18326108 8.72886302 -2 13 C-4.475 12.01 -4.475 12.01 -7 11 C-7 10.34 -7 9.68 -7 9 C-3.53846154 6 -3.53846154 6 -1 6 C-0.67 4.02 -0.34 2.04 0 0 Z " fill="#383634" transform="translate(321,274)"/>
<path d="M0 0 C0.7425 0.495 0.7425 0.495 1.5 1 C5.09090894 2.43636358 8.14456127 2.12851462 12 2 C12 3.32 12 4.64 12 6 C10.5629191 6.05422947 9.12524538 6.09289723 7.6875 6.125 C6.88699219 6.14820313 6.08648437 6.17140625 5.26171875 6.1953125 C3 6 3 6 0 4 C0 2.68 0 1.36 0 0 Z " fill="#3D3C39" transform="translate(245,379)"/>
<path d="M0 0 C0.33 0 0.66 0 1 0 C1.144375 0.94875 1.28875 1.8975 1.4375 2.875 C1.82935399 5.8934494 1.82935399 5.8934494 3 8 C2.67 8.66 2.34 9.32 2 10 C-0.375 9.8125 -0.375 9.8125 -3 9 C-4.375 6.625 -4.375 6.625 -5 4 C-4.67 3.01 -4.34 2.02 -4 1 C-4 1.66 -4 2.32 -4 3 C-3.01 2.67 -2.02 2.34 -1 2 C-0.67 1.34 -0.34 0.68 0 0 Z " fill="#686664" transform="translate(143,375)"/>
<path d="M0 0 C0.99 0 1.98 0 3 0 C3 0.99 3 1.98 3 3 C16.365 3.495 16.365 3.495 30 4 C30.33 3.01 30.66 2.02 31 1 C31.33 1.66 31.66 2.32 32 3 C31.67 3.66 31.34 4.32 31 5 C21.43 5 11.86 5 2 5 C1.34 3.35 0.68 1.7 0 0 Z " fill="#6E6E6B" transform="translate(196,313)"/>
<path d="M0 0 C0.66 0.99 1.32 1.98 2 3 C1.34 4.65 0.68 6.3 0 8 C-8.91 8 -17.82 8 -27 8 C-27.33 7.34 -27.66 6.68 -28 6 C-19.42 6 -10.84 6 -2 6 C-1.34 4.02 -0.68 2.04 0 0 Z " fill="#161614" transform="translate(226,309)"/>
<path d="M0 0 C1.65 0 3.3 0 5 0 C5.38063221 2.3260857 5.71269945 4.66055264 6 7 C5 8 5 8 2.4375 8.0625 C1.633125 8.041875 0.82875 8.02125 0 8 C0 5.36 0 2.72 0 0 Z " fill="#92908D" transform="translate(214,395)"/>
<path d="M0 0 C-1.1094072 3.48670834 -2.26337666 6.77484237 -4 10 C-4.99 10 -5.98 10 -7 10 C-7.3327958 6.33924624 -7.46170299 4.60499012 -5.1875 1.625 C-3 0 -3 0 0 0 Z " fill="#41403E" transform="translate(210,246)"/>
<path d="M0 0 C1.98 0 3.96 0 6 0 C6 1.65 6 3.3 6 5 C4.68 5 3.36 5 2 5 C2 5.99 2 6.98 2 8 C1.34 8 0.68 8 0 8 C0 5.36 0 2.72 0 0 Z " fill="#747271" transform="translate(267,395)"/>
<path d="M0 0 C0.99 0.33 1.98 0.66 3 1 C3 1.99 3 2.98 3 4 C-6.24 4 -15.48 4 -25 4 C-25 3.67 -25 3.34 -25 3 C-16.75 3 -8.5 3 0 3 C0 2.01 0 1.02 0 0 Z " fill="#171715" transform="translate(299,313)"/>
<path d="M0 0 C1.35439668 2.70879335 1.06501451 5.00933268 1 8 C-2 4.25 -2 4.25 -2 2 C-2.66 2 -3.32 2 -4 2 C-4.66 3.98 -5.32 5.96 -6 8 C-6.99 8 -7.98 8 -9 8 C-8.1875 4.5625 -8.1875 4.5625 -7 1 C-4 0 -4 0 0 0 Z " fill="#5E5E5C" transform="translate(253,273)"/>
<path d="M0 0 C0.99 0 1.98 0 3 0 C2.690625 0.7425 2.38125 1.485 2.0625 2.25 C0.73660704 5.68172295 0 8.3149269 0 12 C-1.65 11.67 -3.3 11.34 -5 11 C-4.67 10.34 -4.34 9.68 -4 9 C-3.34 9 -2.68 9 -2 9 C-2 8.01 -2 7.02 -2 6 C-2.99 5.67 -3.98 5.34 -5 5 C-4.01 4.34 -3.02 3.68 -2 3 C-1.34 3.33 -0.68 3.66 0 4 C0 2.68 0 1.36 0 0 Z " fill="#555452" transform="translate(270,223)"/>
<path d="M0 0 C0.33 0.66 0.66 1.32 1 2 C1.66 2 2.32 2 3 2 C3.8638129 3.45264038 4.71580454 4.9123163 5.5625 6.375 C6.27599609 7.59316406 6.27599609 7.59316406 7.00390625 8.8359375 C7.49697266 9.90714844 7.49697266 9.90714844 8 11 C7.67 11.66 7.34 12.32 7 13 C5.62437146 11.71034824 4.29233607 10.37310707 3 9 C3 8.34 3 7.68 3 7 C1.68 6.34 0.36 5.68 -1 5 C-0.67 3.35 -0.34 1.7 0 0 Z " fill="#545551" transform="translate(197,192)"/>
<path d="M0 0 C0.99 0 1.98 0 3 0 C3 3.63 3 7.26 3 11 C2.01 11.33 1.02 11.66 0 12 C0 8.04 0 4.08 0 0 Z " fill="#0E0B0C" transform="translate(362,367)"/>
<path d="M0 0 C1.10272046 3.30816138 1.21537818 5.70111637 0 9 C-1.65204456 9.70211894 -3.31923769 10.36971413 -5 11 C-5.88693303 13.04105639 -5.88693303 13.04105639 -6 15 C-6.33 14.34 -6.66 13.68 -7 13 C-5.8203125 10.46875 -5.8203125 10.46875 -4.125 7.5 C-3.57070313 6.5203125 -3.01640625 5.540625 -2.4453125 4.53125 C-1.96835937 3.6959375 -1.49140625 2.860625 -1 2 C-0.67 1.34 -0.34 0.68 0 0 Z " fill="#5E5F5C" transform="translate(326,148)"/>
<path d="M0 0 C2.375 -0.125 2.375 -0.125 5 0 C5.66 0.66 6.32 1.32 7 2 C6.67 2.99 6.34 3.98 6 5 C6 4.34 6 3.68 6 3 C4.68 3 3.36 3 2 3 C2 4.32 2 5.64 2 7 C2.99 7.33 3.98 7.66 5 8 C3.35 8 1.7 8 0 8 C0 5.36 0 2.72 0 0 Z " fill="#747272" transform="translate(224,395)"/>
<path d="M0 0 C1.98 0 3.96 0 6 0 C6.66 1.32 7.32 2.64 8 4 C8.33 3.01 8.66 2.02 9 1 C12 4.75 12 4.75 12 7 C9.75 7.3125 9.75 7.3125 7 7 C4.875 4.625 4.875 4.625 3 2 C2.01 1.34 1.02 0.68 0 0 Z " fill="#81817F" transform="translate(273,378)"/>
<path d="M0 0 C1.32 0 2.64 0 4 0 C5.32 2.31 6.64 4.62 8 7 C6.35 7.33 4.7 7.66 3 8 C0 3.375 0 3.375 0 0 Z " fill="#5C5C5A" transform="translate(302,366)"/>
<path d="M0 0 C2.475 0.495 2.475 0.495 5 1 C4.67 2.32 4.34 3.64 4 5 C3.34 5 2.68 5 2 5 C2 5.66 2 6.32 2 7 C2.99 7.33 3.98 7.66 5 8 C3.35 8 1.7 8 0 8 C0 5.36 0 2.72 0 0 Z " fill="#464242" transform="translate(246,395)"/>
<path d="M0 0 C1.32 0 2.64 0 4 0 C4 2.31 4 4.62 4 7 C2.35 7 0.7 7 -1 7 C-1.04254356 5.00045254 -1.04080783 2.99958364 -1 1 C-0.67 0.67 -0.34 0.34 0 0 Z " fill="#696566" transform="translate(209,396)"/>
<path d="M0 0 C0.144375 0.639375 0.28875 1.27875 0.4375 1.9375 C0.81007181 3.97545146 0.81007181 3.97545146 2 5 C2.14115161 7.67058851 2.04247107 10.32432238 2 13 C1.01 13 0.02 13 -1 13 C-1.02696365 11.20841511 -1.04637917 9.41671527 -1.0625 7.625 C-1.07410156 6.62726563 -1.08570313 5.62953125 -1.09765625 4.6015625 C-1 2 -1 2 0 0 Z " fill="#232321" transform="translate(225,372)"/>
<path d="M0 0 C0.33 0.66 0.66 1.32 1 2 C2.32 1.67 3.64 1.34 5 1 C3.63016497 4.16115776 3.0109362 4.9927092 0 7 C-2.04296875 7.1953125 -2.04296875 7.1953125 -4.1875 7.125 C-6.0746875 7.063125 -6.0746875 7.063125 -8 7 C-8 6.67 -8 6.34 -8 6 C-5.69 6 -3.38 6 -1 6 C-1 5.34 -1 4.68 -1 4 C-1.66 3.67 -2.32 3.34 -3 3 C-2.01 2.01 -1.02 1.02 0 0 Z " fill="#706F6D" transform="translate(337,378)"/>
<path d="M0 0 C0.99 0.33 1.98 0.66 3 1 C2.38479725 4.99881788 0.39731331 7.80358226 -2 11 C-2.66 11 -3.32 11 -4 11 C-3.52269162 9.5410574 -3.04308958 8.08286504 -2.5625 6.625 C-2.29566406 5.81289062 -2.02882812 5.00078125 -1.75390625 4.1640625 C-1 2 -1 2 0 0 Z " fill="#454442" transform="translate(211,153)"/>
<path d="M0 0 C2.64 0 5.28 0 8 0 C7.34 2.64 6.68 5.28 6 8 C5.34 8 4.68 8 4 8 C3.67 6.35 3.34 4.7 3 3 C2.01 2.67 1.02 2.34 0 2 C0 1.34 0 0.68 0 0 Z " fill="#868584" transform="translate(295,395)"/>
<path d="M0 0 C0.99 0.33 1.98 0.66 3 1 C3.125 3.375 3.125 3.375 3 6 C2.34 6.66 1.68 7.32 1 8 C0.01 8 -0.98 8 -2 8 C-1.125 1.125 -1.125 1.125 0 0 Z " fill="#353533" transform="translate(340,372)"/>
<path d="M0 0 C0.33 1.32 0.66 2.64 1 4 C1.66 4 2.32 4 3 4 C3.66 2.68 4.32 1.36 5 0 C5.268125 0.928125 5.53625 1.85625 5.8125 2.8125 C6.91148371 5.76240366 7.62418561 7.05615186 10 9 C7.03824877 8.38722388 5.61941217 7.74627478 3 6 C2.67 6.99 2.34 7.98 2 9 C0.14223235 5.86501708 -0.20140476 3.62528568 0 0 Z " fill="#83827F" transform="translate(242,373)"/>
<path d="M0 0 C0.66 0 1.32 0 2 0 C2.70173653 4.38585329 3.10834375 8.55790643 3 13 C2.01 12.34 1.02 11.68 0 11 C-0.29296875 8.3984375 -0.29296875 8.3984375 -0.1875 5.375 C-0.16042969 4.37210937 -0.13335937 3.36921875 -0.10546875 2.3359375 C-0.07066406 1.56507813 -0.03585938 0.79421875 0 0 Z " fill="#100F0D" transform="translate(168,367)"/>
<path d="M0 0 C1.32 0 2.64 0 4 0 C3.43628586 3.26954202 2.50037734 4.82575883 0 7 C-0.66 6.34 -1.32 5.68 -2 5 C-1.46428571 1.46428571 -1.46428571 1.46428571 0 0 Z " fill="#555554" transform="translate(315,366)"/>
<path d="M0 0 C1.32 1.65 2.64 3.3 4 5 C3 7 3 7 1 10 C-0.32 9.01 -1.64 8.02 -3 7 C-2.34 6.34 -1.68 5.68 -1 5 C-0.35232207 2.42938689 -0.35232207 2.42938689 0 0 Z " fill="#41413E" transform="translate(205,205)"/>
<path d="M0 0 C1.88391785 3.26545761 2.49287967 6.28111761 3 10 C3.99 10.33 4.98 10.66 6 11 C5.01 11.33 4.02 11.66 3 12 C1.02 8.37 -0.96 4.74 -3 1 C-2.01 0.67 -1.02 0.34 0 0 Z " fill="#4F4E4C" transform="translate(218,200)"/>
<path d="M0 0 C1.32 1.32 2.64 2.64 4 4 C1.31158141 6.25245881 -0.64641875 7.88213958 -4 9 C-2.80100302 5.9168649 -1.52299523 2.93720508 0 0 Z " fill="#565653" transform="translate(256,183)"/>
<path d="M0 0 C1.1484375 1.734375 1.1484375 1.734375 2 4 C1.1015625 6.140625 1.1015625 6.140625 -0.375 8.25 C-0.85710937 8.95640625 -1.33921875 9.6628125 -1.8359375 10.390625 C-2.22007812 10.92171875 -2.60421875 11.4528125 -3 12 C-3.66 11.34 -4.32 10.68 -5 10 C-4.67 9.01 -4.34 8.02 -4 7 C-3.34 7.33 -2.68 7.66 -2 8 C-1.7834375 6.576875 -1.7834375 6.576875 -1.5625 5.125 C-1 2 -1 2 0 0 Z " fill="#53524F" transform="translate(345,232)"/>
<path d="M0 0 C0.33 0.99 0.66 1.98 1 3 C3.01508358 3.73323796 3.01508358 3.73323796 5 4 C4.34 4 3.68 4 3 4 C3 4.66 3 5.32 3 6 C1 7.625 1 7.625 -1 9 C-1.66 8.67 -2.32 8.34 -3 8 C-1.125 2.25 -1.125 2.25 0 0 Z " fill="#40403E" transform="translate(290,212)"/>
<path d="M0 0 C0.66 0.33 1.32 0.66 2 1 C2.8125 3.8125 2.8125 3.8125 3 7 C1.5625 9.375 1.5625 9.375 0 11 C-0.66 8.03 -1.32 5.06 -2 2 C-1.34 2 -0.68 2 0 2 C0 1.34 0 0.68 0 0 Z " fill="#383935" transform="translate(388,147)"/>
<path d="M0 0 C3 1 3 1 4.1875 3.0625 C4.455625 3.701875 4.72375 4.34125 5 5 C4.34 5 3.68 5 3 5 C3 5.66 3 6.32 3 7 C1.68 7.33 0.36 7.66 -1 8 C-0.67 5.36 -0.34 2.72 0 0 Z " fill="#86837F" transform="translate(274,395)"/>
<path d="M0 0 C0.99 0 1.98 0 3 0 C3 2.97 3 5.94 3 9 C2.01 8.67 1.02 8.34 0 8 C0 5.36 0 2.72 0 0 Z " fill="#242220" transform="translate(324,373)"/>
<path d="M0 0 C0.66 0.33 1.32 0.66 2 1 C2 3.64 2 6.28 2 9 C1.01 9.33 0.02 9.66 -1 10 C-1.33 10.66 -1.66 11.32 -2 12 C-2.625 9.125 -2.625 9.125 -3 6 C-2.34 5.34 -1.68 4.68 -1 4 C-0.67 4.66 -0.34 5.32 0 6 C0 4.02 0 2.04 0 0 Z " fill="#686866" transform="translate(282,367)"/>
<path d="M0 0 C1.32 0.66 2.64 1.32 4 2 C4 3.32 4 4.64 4 6 C2.35 6.33 0.7 6.66 -1 7 C-0.67 4.69 -0.34 2.38 0 0 Z " fill="#1B1A18" transform="translate(332,200)"/>
<path d="M0 0 C1.9375 0.6875 1.9375 0.6875 4 2 C4.75 4.625 4.75 4.625 5 7 C2.03824877 6.38722388 0.61941217 5.74627478 -2 4 C-1.34 2.68 -0.68 1.36 0 0 Z " fill="#504F4D" transform="translate(192,185)"/>
<path d="M0 0 C1.23556641 0.01740234 1.23556641 0.01740234 2.49609375 0.03515625 C3.32238281 0.04417969 4.14867187 0.05320312 5 0.0625 C5.63808594 0.07410156 6.27617187 0.08570313 6.93359375 0.09765625 C6.60359375 0.75765625 6.27359375 1.41765625 5.93359375 2.09765625 C3.95359375 2.09765625 1.97359375 2.09765625 -0.06640625 2.09765625 C-0.06640625 4.40765625 -0.06640625 6.71765625 -0.06640625 9.09765625 C-0.39640625 9.09765625 -0.72640625 9.09765625 -1.06640625 9.09765625 C-1.06640625 6.78765625 -1.06640625 4.47765625 -1.06640625 2.09765625 C-1.72640625 1.76765625 -2.38640625 1.43765625 -3.06640625 1.09765625 C-2.06640625 0.09765625 -2.06640625 0.09765625 0 0 Z " fill="#4A4A48" transform="translate(228.06640625,374.90234375)"/>
<path d="M0 0 C-0.60698743 4.12751449 -2.03810791 7.3321148 -4 11 C-4.33 11 -4.66 11 -5 11 C-5.36637589 4.64948454 -5.36637589 4.64948454 -3.625 1.5625 C-2 0 -2 0 0 0 Z " fill="#4E4D47" transform="translate(335,254)"/>
<path d="M0 0 C2.5 1.1875 2.5 1.1875 5 3 C5.3125 5.6875 5.3125 5.6875 5 8 C5.99 8.33 6.98 8.66 8 9 C7.01 10.485 7.01 10.485 6 12 C4.99466333 10.37829621 3.99588093 8.75252763 3 7.125 C2.443125 6.22007812 1.88625 5.31515625 1.3125 4.3828125 C0 2 0 2 0 0 Z " fill="#71716F" transform="translate(154,236)"/>
<path d="M0 0 C0.33 0.66 0.66 1.32 1 2 C1.99 2 2.98 2 4 2 C4 2.66 4 3.32 4 4 C2.02 4.66 0.04 5.32 -2 6 C-2 6.66 -2 7.32 -2 8 C-1.34 8.33 -0.68 8.66 0 9 C-0.66 9.66 -1.32 10.32 -2 11 C-2.94693195 7.2983569 -3.30443767 5.60887535 -1.5625 2.125 C-1.046875 1.42375 -0.53125 0.7225 0 0 Z " fill="#605F5F" transform="translate(204,168)"/>
<path d="M0 0 C3.29078593 2.79716804 5.06305458 6.19528578 7 10 C6.67 10.66 6.34 11.32 6 12 C5.34 11.67 4.68 11.34 4 11 C4 10.01 4 9.02 4 8 C3.34 8 2.68 8 2 8 C0.23537317 4.91190305 0 3.76687864 0 0 Z " fill="#62625F" transform="translate(181,163)"/>
<path d="M0 0 C2.64 0 5.28 0 8 0 C6.125 5.75 6.125 5.75 5 8 C4.01 7.67 3.02 7.34 2 7 C2 4 2 4 4 2 C2.68 1.34 1.36 0.68 0 0 Z " fill="#ADADAA" transform="translate(232,395)"/>
<path d="M0 0 C0.99 0 1.98 0 3 0 C3 2.64 3 5.28 3 8 C2.01 8.33 1.02 8.66 0 9 C0 6.03 0 3.06 0 0 Z " fill="#1D1C1A" transform="translate(258,371)"/>
<path d="M0 0 C0.99 0.33 1.98 0.66 3 1 C2.67 3.31 2.34 5.62 2 8 C1.01 7.67 0.02 7.34 -1 7 C-1.04254356 5.00045254 -1.04080783 2.99958364 -1 1 C-0.67 0.67 -0.34 0.34 0 0 Z " fill="#1F1E1A" transform="translate(244,370)"/>
<path d="M0 0 C2.1640625 0.2421875 2.1640625 0.2421875 4.625 0.875 C5.44226563 1.07867187 6.25953125 1.28234375 7.1015625 1.4921875 C8.04128906 1.74355469 8.04128906 1.74355469 9 2 C9 2.33 9 2.66 9 3 C8.05125 3.12375 7.1025 3.2475 6.125 3.375 C2.91332809 3.71687177 2.91332809 3.71687177 1 6 C0.01 4.68 -0.98 3.36 -2 2 C-1.34 1.34 -0.68 0.68 0 0 Z " fill="#6D6B69" transform="translate(246,367)"/>
<path d="M0 0 C2.475 0.99 2.475 0.99 5 2 C5 3.32 5 4.64 5 6 C4.01 6 3.02 6 2 6 C2 5.01 2 4.02 2 3 C-0.31 3 -2.62 3 -5 3 C-5 2.67 -5 2.34 -5 2 C-3.35 1.67 -1.7 1.34 0 1 C0 0.67 0 0.34 0 0 Z " fill="#494A45" transform="translate(198,367)"/>
<path d="M0 0 C0.99 0 1.98 0 3 0 C3 1.65 3 3.3 3 5 C2.34 5 1.68 5 1 5 C1 5.66 1 6.32 1 7 C0.34 7 -0.32 7 -1 7 C-1.04254356 5.00045254 -1.04080783 2.99958364 -1 1 C-0.67 0.67 -0.34 0.34 0 0 Z " fill="#3A3A38" transform="translate(147,366)"/>
<path d="M0 0 C2.31 0.66 4.62 1.32 7 2 C7 2.99 7 3.98 7 5 C5.02 5.99 5.02 5.99 3 7 C0 2.25 0 2.25 0 0 Z " fill="#4F4F4D" transform="translate(134,199)"/>
<path d="M0 0 C0.99 0 1.98 0 3 0 C1.80100302 3.0831351 0.52299523 6.06279492 -1 9 C-1.97812643 5.95694001 -2.04560527 4.0322553 -1 1 C-0.67 0.67 -0.34 0.34 0 0 Z " fill="#6A6766" transform="translate(370,186)"/>
<path d="M0 0 C0.99 0.66 1.98 1.32 3 2 C2.01 2.33 1.02 2.66 0 3 C-0.33 4.65 -0.66 6.3 -1 8 C-1.33 7.34 -1.66 6.68 -2 6 C-2.66 5.67 -3.32 5.34 -4 5 C-3 2 -3 2 0 0 Z " fill="#1B1B18" transform="translate(324,157)"/>
<path d="M0 0 C1.23556641 0.01740234 1.23556641 0.01740234 2.49609375 0.03515625 C3.32238281 0.04417969 4.14867187 0.05320312 5 0.0625 C5.63808594 0.07410156 6.27617187 0.08570313 6.93359375 0.09765625 C7.26359375 0.75765625 7.59359375 1.41765625 7.93359375 2.09765625 C4.96359375 2.09765625 1.99359375 2.09765625 -1.06640625 2.09765625 C-1.39640625 3.41765625 -1.72640625 4.73765625 -2.06640625 6.09765625 C-2.39640625 6.09765625 -2.72640625 6.09765625 -3.06640625 6.09765625 C-3.10912725 4.4315372 -3.10704457 2.7638274 -3.06640625 1.09765625 C-2.06640625 0.09765625 -2.06640625 0.09765625 0 0 Z " fill="#1E1E1B" transform="translate(193.06640625,374.90234375)"/>
<path d="M0 0 C2.31 0 4.62 0 7 0 C6.67 0.99 6.34 1.98 6 3 C4.68 2.67 3.36 2.34 2 2 C1.67 2.66 1.34 3.32 1 4 C0.67 2.68 0.34 1.36 0 0 Z M3 3 C3.99 3.495 3.99 3.495 5 4 C4.67 4.99 4.34 5.98 4 7 C3.67 5.68 3.34 4.36 3 3 Z " fill="#20211B" transform="translate(386,145)"/>
<path d="M0 0 C0.99 0.33 1.98 0.66 3 1 C3 3.31 3 5.62 3 8 C2.01 7.67 1.02 7.34 0 7 C0 4.69 0 2.38 0 0 Z " fill="#171516" transform="translate(308,376)"/>
<path d="M0 0 C0.99 0 1.98 0 3 0 C3 2.31 3 4.62 3 7 C2.01 7 1.02 7 0 7 C0 4.69 0 2.38 0 0 Z " fill="#2A2A26" transform="translate(270,377)"/>
<path d="M0 0 C0.66 0.66 1.32 1.32 2 2 C2.99 1.34 3.98 0.68 5 0 C5 1.65 5 3.3 5 5 C4.34 5 3.68 5 3 5 C2.67 5.66 2.34 6.32 2 7 C0 4 0 4 0 0 Z " fill="#535351" transform="translate(281,228)"/>
<path d="M0 0 C3 3.75 3 3.75 3 6 C1.68 6.33 0.36 6.66 -1 7 C-1.66 5.68 -2.32 4.36 -3 3 C-2.01 2.01 -1.02 1.02 0 0 Z " fill="#3E3F3C" transform="translate(318,205)"/>
<path d="M0 0 C0.66 0 1.32 0 2 0 C1.8125 2.875 1.8125 2.875 1 6 C-1.5625 7.375 -1.5625 7.375 -4 8 C-3.67 7.01 -3.34 6.02 -3 5 C-2.34 5 -1.68 5 -1 5 C-0.67 3.35 -0.34 1.7 0 0 Z " fill="#181816" transform="translate(186,199)"/>
<path d="M0 0 C1.32 0.33 2.64 0.66 4 1 C4 1.99 4 2.98 4 4 C3.01 4 2.02 4 1 4 C1 4.66 1 5.32 1 6 C1.99 6.33 2.98 6.66 4 7 C2.68 7 1.36 7 0 7 C0 4.69 0 2.38 0 0 Z " fill="#393836" transform="translate(214,396)"/>
<path d="M0 0 C2.0625 2.25 2.0625 2.25 4 5 C3.75 7.3125 3.75 7.3125 3 9 C2.34 9 1.68 9 1 9 C0.29925156 5.846632 0 3.27275026 0 0 Z " fill="#454642" transform="translate(276,245)"/>
<path d="M0 0 C0.99 1.32 1.98 2.64 3 4 C2.67 4.66 2.34 5.32 2 6 C-0.5625 6.625 -0.5625 6.625 -3 7 C-1.125 1.125 -1.125 1.125 0 0 Z " fill="#464642" transform="translate(236,221)"/>
<path d="M0 0 C1.33332095 2.6666419 0.67102033 4.16680303 0 7 C-0.66 7 -1.32 7 -2 7 C-2.33 8.32 -2.66 9.64 -3 11 C-3.66 11 -4.32 11 -5 11 C-3.77472971 6.94718288 -2.30119506 3.55639236 0 0 Z " fill="#6F6F6E" transform="translate(331,200)"/>
<path d="M0 0 C0.66 0.33 1.32 0.66 2 1 C0.7508258 4.45925163 -0.67527795 7.14693203 -3 10 C-3.33 8.35 -3.66 6.7 -4 5 C-3.01 5 -2.02 5 -1 5 C-0.67 3.35 -0.34 1.7 0 0 Z " fill="#5B5C59" transform="translate(288,191)"/>
<path d="M0 0 C0.33 0 0.66 0 1 0 C1 2.31 1 4.62 1 7 C-0.65 6.67 -2.3 6.34 -4 6 C-1.125 1.125 -1.125 1.125 0 0 Z " fill="#1E1F1A" transform="translate(293,175)"/>
<path d="M0 0 C2.89932357 2.39509338 3.50168276 4.31245243 4 8 C2.02 7.01 0.04 6.02 -2 5 C-1.34 4.67 -0.68 4.34 0 4 C0 2.68 0 1.36 0 0 Z " fill="#5C5C59" transform="translate(177,155)"/>
<path d="M0 0 C2.4375 0.6875 2.4375 0.6875 5 2 C5.8125 4.625 5.8125 4.625 6 7 C1.2 4.53846154 1.2 4.53846154 0.1875 1.8125 C0.125625 1.214375 0.06375 0.61625 0 0 Z " fill="#454543" transform="translate(283,148)"/>
<path d="M0 0 C3.3 0 6.6 0 10 0 C10.66 1.98 11.32 3.96 12 6 C11.01 5.67 10.02 5.34 9 5 C9 3.68 9 2.36 9 1 C6.03 1 3.06 1 0 1 C0 0.67 0 0.34 0 0 Z " fill="#616160" transform="translate(274,143)"/>
<path d="M0 0 C0.78375 0.04125 1.5675 0.0825 2.375 0.125 C2.045 1.115 1.715 2.105 1.375 3.125 C0.385 3.125 -0.605 3.125 -1.625 3.125 C-1.955 4.115 -2.285 5.105 -2.625 6.125 C-3.285 4.805 -3.945 3.485 -4.625 2.125 C-2.625 0.125 -2.625 0.125 0 0 Z " fill="#8A8A87" transform="translate(261.625,394.875)"/>
<path d="M0 0 C0.33 0 0.66 0 1 0 C1 1.65 1 3.3 1 5 C4.465 4.505 4.465 4.505 8 4 C6 6 6 6 4.0546875 6.1953125 C2.03645833 6.13020833 0.01822917 6.06510417 -2 6 C-1.34 4.02 -0.68 2.04 0 0 Z " fill="#464643" transform="translate(192,377)"/>
<path d="M0 0 C0.1875 2.875 0.1875 2.875 0 6 C-0.99 6.66 -1.98 7.32 -3 8 C-3 5.69 -3 3.38 -3 1 C-1 0 -1 0 0 0 Z " fill="#272423" transform="translate(147,374)"/>
<path d="M0 0 C0.99 0 1.98 0 3 0 C2.67 1.32 2.34 2.64 2 4 C1.01 3.67 0.02 3.34 -1 3 C-1 4.98 -1 6.96 -1 9 C-1.33 9 -1.66 9 -2 9 C-2.125 5.625 -2.125 5.625 -2 2 C-1.34 1.34 -0.68 0.68 0 0 Z " fill="#575654" transform="translate(325,370)"/>
<path d="M0 0 C2.475 0.99 2.475 0.99 5 2 C4.67 3.32 4.34 4.64 4 6 C3.34 6 2.68 6 2 6 C1.34 4.02 0.68 2.04 0 0 Z " fill="#5D5D5B" transform="translate(222,212)"/>
<path d="M0 0 C0.66 1.32 1.32 2.64 2 4 C-2.75 8.875 -2.75 8.875 -5 10 C-3.66511872 6.40608886 -2.03977277 3.24509304 0 0 Z " fill="#72716F" transform="translate(318,163)"/>
<path d="M0 0 C0.66 0 1.32 0 2 0 C2 1.32 2 2.64 2 4 C2.66 4 3.32 4 4 4 C4 5.32 4 6.64 4 8 C3.34 8 2.68 8 2 8 C0.23537317 4.91190305 0 3.76687864 0 0 Z " fill="#726E6D" transform="translate(197,395)"/>
<path d="M0 0 C1.32 0.33 2.64 0.66 4 1 C4 1.66 4 2.32 4 3 C3.01 3 2.02 3 1 3 C1 3.99 1 4.98 1 6 C1.99 6.33 2.98 6.66 4 7 C2.68 7 1.36 7 0 7 C0 4.69 0 2.38 0 0 Z " fill="#292725" transform="translate(233,396)"/>
<path d="M0 0 C1.485 0.99 1.485 0.99 3 2 C3 2.66 3 3.32 3 4 C4.32 4.66 5.64 5.32 7 6 C5.02 6 3.04 6 1 6 C0.34 4.35 -0.32 2.7 -1 1 C-0.67 0.67 -0.34 0.34 0 0 Z " fill="#22211F" transform="translate(168,378)"/>
<path d="M0 0 C1.32 0 2.64 0 4 0 C3.67 1.65 3.34 3.3 3 5 C2.01 4.67 1.02 4.34 0 4 C0 2.68 0 1.36 0 0 Z " fill="#504E4E" transform="translate(135,366)"/>
<path d="M0 0 C2.64 0 5.28 0 8 0 C7.67 1.32 7.34 2.64 7 4 C4.69 3.01 2.38 2.02 0 1 C0 0.67 0 0.34 0 0 Z " fill="#1D1C1B" transform="translate(329,367)"/>
<path d="M0 0 C0.99 0.33 1.98 0.66 3 1 C2.38461538 6.53846154 2.38461538 6.53846154 0.4375 8.875 C-0.036875 9.24625 -0.51125 9.6175 -1 10 C-1 8.68 -1 7.36 -1 6 C-0.34 6 0.32 6 1 6 C0.67 4.02 0.34 2.04 0 0 Z " fill="#474644" transform="translate(237,289)"/>
<path d="M0 0 C1.32 0 2.64 0 4 0 C3.1875 2.4375 3.1875 2.4375 2 5 C1.01 5.33 0.02 5.66 -1 6 C-0.67 4.02 -0.34 2.04 0 0 Z " fill="#52504F" transform="translate(321,274)"/>
<path d="M0 0 C0.66 0.33 1.32 0.66 2 1 C3 4 3 4 2.0625 6.1875 C1.5365625 7.0846875 1.5365625 7.0846875 1 8 C0.01 5.69 -0.98 3.38 -2 1 C-1.34 0.67 -0.68 0.34 0 0 Z " fill="#515150" transform="translate(142,209)"/>
<path d="M0 0 C0.66 0.99 1.32 1.98 2 3 C1.34 3 0.68 3 0 3 C-0.33 4.65 -0.66 6.3 -1 8 C-1.99 8.33 -2.98 8.66 -4 9 C-2.94124926 5.59687262 -1.99097846 2.98646769 0 0 Z " fill="#706E6D" transform="translate(186,196)"/>
<path d="M0 0 C0.66 0 1.32 0 2 0 C2 0.66 2 1.32 2 2 C2.66 2.33 3.32 2.66 4 3 C5.125 5.0625 5.125 5.0625 6 7 C5.01 7 4.02 7 3 7 C2.01 4.69 1.02 2.38 0 0 Z " fill="#595856" transform="translate(174,272)"/>
<path d="M0 0 C0.99 0 1.98 0 3 0 C1.92598892 2.91517292 1.22189824 4.77810176 -1 7 C-2 4 -2 4 -1.0625 1.8125 C-0.5365625 0.9153125 -0.5365625 0.9153125 0 0 Z " fill="#5D5D59" transform="translate(327,265)"/>
<path d="M0 0 C0.66 1.32 1.32 2.64 2 4 C0.625 6 0.625 6 -1 8 C-1.66 8 -2.32 8 -3 8 C-1.125 2.25 -1.125 2.25 0 0 Z " fill="#4A4A48" transform="translate(244,205)"/>
<path d="M0 0 C0.99 0.33 1.98 0.66 3 1 C2.1875 3.4375 2.1875 3.4375 1 6 C0.01 6.33 -0.98 6.66 -2 7 C-1.42415568 4.61435923 -0.77772405 2.33317216 0 0 Z " fill="#5E5D5A" transform="translate(341,179)"/>
<path d="M0 0 C0.99 0 1.98 0 3 0 C1.92598892 2.91517292 1.22189824 4.77810176 -1 7 C-1.625 5.1875 -1.625 5.1875 -2 3 C-1.34 2.01 -0.68 1.02 0 0 Z " fill="#68675D" transform="translate(378,172)"/>
</svg>
